<svg width="428" height="410" viewBox="0 0 428 410" fill="none" xmlns="http://www.w3.org/2000/svg">
<rect width="428" height="410" fill="#F5F5F5"/>
<ellipse cx="214" cy="205" rx="214" ry="205" fill="#192A97"/>
<path d="M222.326 19V135.383M222.326 19L134.986 135.383M222.326 19H306M97 186L134.986 135.383M222.326 135.383V186H306M222.326 135.383H134.986M222.326 135.383H294.205" stroke="white"/>
<path d="M342 186H107C92.6406 186 81 197.641 81 212V276.412V347.755C81 362.114 92.6406 373.755 107 373.755H134.116H162.605C176.965 373.755 188.605 362.114 188.605 347.755V312.075C188.605 297.715 176.965 286.075 162.605 286.075H134.116" stroke="white"/>
<path d="M222.234 184V369.857H186.171H222.012H257.852" stroke="white"/>
<path d="M260.078 189.095V232.792C260.078 247.151 271.719 258.792 286.078 258.792H312.438C326.798 258.792 338.438 270.432 338.438 284.792V355.598C338.438 362.121 333.981 367.799 327.645 369.35V369.35C326.269 369.686 324.857 369.857 323.44 369.857H260.078" stroke="white"/>
</svg>
